<svg data-v-0dd9719b="" version="1.0" xmlns="http://www.w3.org/2000/svg" xmlns:xlink="http://www.w3.org/1999/xlink" width="100%" height="100%" viewBox="0 0 340.000000 250.000000" preserveAspectRatio="xMidYMid meet" color-interpolation-filters="sRGB" style="margin: auto;"> <rect data-v-0dd9719b="" x="0" y="0" width="100%" height="100%" fill="#fff" fill-opacity="1" class="background"></rect> <rect data-v-0dd9719b="" x="0" y="0" width="100%" height="100%" fill="url(#watermark)" fill-opacity="1" class="watermarklayer"></rect> <g data-v-0dd9719b="" fill="#333" class="icon-text-wrapper icon-svg-group iconsvg" transform="translate(48.70500183105469,90.8947525024414)"><g class="iconsvg-imagesvg" transform="translate(0,0)"><g><rect fill="#333" fill-opacity="0" stroke-width="2" x="0" y="0" width="60" height="68.21049759557995" class="image-rect"></rect> <svg x="0" y="0" width="60" height="68.21049759557995" filtersec="colorsb7906015016" class="image-svg-svg primary" style="overflow: visible;"><svg xmlns="http://www.w3.org/2000/svg" viewBox="-0.004839658737182617 0 70.51221466064453 80.16134643554688"><path d="M31.29 25.67V4.2A4.33 4.33 0 0 1 35.24 0a4.12 4.12 0 0 1 4 4.11q0 21.48.09 43c0 .87-.42 2 .5 2.56s1.64-.47 2.46-.77c3.35-1.24 4.28-3.55 4.21-7.14-.19-10.81.07-21.63.17-32.45 0-2.69.44-2.69 2.92-1.64 4.22 1.79 5.34 4.68 5.2 9.16-.35 10.56-.15 21.13 0 31.71a4 4 0 0 1-2.27 4c-4.92 2.78-9.78 5.65-14.63 8.56a4.3 4.3 0 0 1-5.06-.11c-4.78-3-9.66-5.84-14.57-8.63a3.62 3.62 0 0 1-2.11-3.56c.06-11.91.09-23.81 0-35.71 0-1.93 1.2-2.77 2.4-3.7a32 32 0 0 1 3-1.8c1.94-1.15 2.66-.75 2.66 1.55v33.21c0 4.36 1.52 6.35 5.62 7.45 1.54.41 1.43-.67 1.43-1.57V34.99v-9.24z" fill="#ed8123"></path><path d="M.08 40.13c0-5.91.05-11.82 0-17.72 0-1.89.46-3.14 2.34-3.89a24 24 0 0 0 4.1-2.31c1.54-1 1.95-.23 1.95 1.17 0 3.08.16 6.17 0 9.23-.54 8.15.22 16.32-.35 24.44-.3 4.22 1.93 6.1 4.91 7.62 6.89 3.5 13.49 7.5 20.15 11.4a3.89 3.89 0 0 0 4.51 0c7.19-4.13 14.17-8.61 21.57-12.38a5.32 5.32 0 0 0 3.17-5.33c-.2-11.31-.08-22.63-.06-33.95 0-2.92.21-2.8 2.92-1.69 4.25 1.74 5.36 4.56 5.2 9.06-.37 10.47-.15 21 0 31.45a4.75 4.75 0 0 1-2.56 4.63c-10.1 6.2-20.55 11.81-30.77 17.81a2.77 2.77 0 0 1-3.15 0C23.37 74.11 13.27 67.77 2.87 62 .83 60.83-.08 59.54 0 57.11c.19-5.66.06-11.32.06-17z" fill="#586ed4"></path></svg></svg> <!----></g></g> <g transform="translate(67,16.28024673461914)"><g data-gra="path-name" fill-rule="" class="tp-name iconsvg-namesvg"><g transform="scale(1)"><g><path d="M15.81-17.7L23.68-38.23 33.38-38.23 35.14-17.7 43.65-39.43 53.91-39.43 39.43-3.78 28.53-3.78 26.07-21.29 18.83-3.78 7.94-3.78 3.72-38.23 2.52-39.43 13.98-39.43 15.81-17.7ZM62.29-39.43L96.74-39.43 96.17-33.38 76.21-33.38 75.01-25.57 93.72-25.57 93.15-19.52 73.75-19.52 72.55-9.83 93.72-9.83 93.15-3.78 59.27-3.78 64.11-37.03 62.29-39.43ZM103.92-39.43L118.4-39.43 114.18-9.83 137.74-9.83 137.17-3.78 105.75-3.78Q103.92-3.78 103.01-4.98 102.09-6.17 102.09-8L102.09-8 105.75-37.03 103.92-39.43ZM144.29-39.43L158.78-39.43 154.56-9.83 178.11-9.83 177.54-3.78 146.12-3.78Q144.29-3.78 143.38-4.98 142.46-6.17 142.46-8L142.46-8 146.12-37.03 144.29-39.43Z" transform="translate(-2.5199999809265137, 39.43000030517578)"></path></g> <!----> <!----> <!----> <!----> <!----> <!----> <!----></g></g> <!----></g></g><defs v-gra="od"></defs></svg>